<svg width="32" height="32" viewBox="0 0 32 32" fill="none" xmlns="http://www.w3.org/2000/svg">
<g id="Frame 14" clip-path="url(#clip0_477_346)">
<g id="cancel">
<mask id="mask0_477_346" style="mask-type:alpha" maskUnits="userSpaceOnUse" x="0" y="0" width="32" height="32">
<rect id="Bounding box" width="32" height="32" fill="#D9D9D9"/>
</mask>
<g mask="url(#mask0_477_346)">
<path id="cancel_2" d="M16 17.8667L19.8667 21.7333C20.1111 21.9778 20.4222 22.1 20.8 22.1C21.1778 22.1 21.4889 21.9778 21.7333 21.7333C21.9778 21.4889 22.1 21.1778 22.1 20.8C22.1 20.4222 21.9778 20.1111 21.7333 19.8667L17.8667 16L21.7333 12.1333C21.9778 11.8889 22.1 11.5778 22.1 11.2C22.1 10.8222 21.9778 10.5111 21.7333 10.2667C21.4889 10.0222 21.1778 9.9 20.8 9.9C20.4222 9.9 20.1111 10.0222 19.8667 10.2667L16 14.1333L12.1333 10.2667C11.8889 10.0222 11.5778 9.9 11.2 9.9C10.8222 9.9 10.5111 10.0222 10.2667 10.2667C10.0222 10.5111 9.9 10.8222 9.9 11.2C9.9 11.5778 10.0222 11.8889 10.2667 12.1333L14.1333 16L10.2667 19.8667C10.0222 20.1111 9.9 20.4222 9.9 20.8C9.9 21.1778 10.0222 21.4889 10.2667 21.7333C10.5111 21.9778 10.8222 22.1 11.2 22.1C11.5778 22.1 11.8889 21.9778 12.1333 21.7333L16 17.8667ZM16 29.3333C14.1556 29.3333 12.4222 28.9833 10.8 28.2833C9.17778 27.5833 7.76667 26.6333 6.56667 25.4333C5.36667 24.2333 4.41667 22.8222 3.71667 21.2C3.01667 19.5778 2.66667 17.8444 2.66667 16C2.66667 14.1556 3.01667 12.4222 3.71667 10.8C4.41667 9.17778 5.36667 7.76667 6.56667 6.56667C7.76667 5.36667 9.17778 4.41667 10.8 3.71667C12.4222 3.01667 14.1556 2.66667 16 2.66667C17.8444 2.66667 19.5778 3.01667 21.2 3.71667C22.8222 4.41667 24.2333 5.36667 25.4333 6.56667C26.6333 7.76667 27.5833 9.17778 28.2833 10.8C28.9833 12.4222 29.3333 14.1556 29.3333 16C29.3333 17.8444 28.9833 19.5778 28.2833 21.2C27.5833 22.8222 26.6333 24.2333 25.4333 25.4333C24.2333 26.6333 22.8222 27.5833 21.2 28.2833C19.5778 28.9833 17.8444 29.3333 16 29.3333Z" fill="#424A5A"/>
</g>
</g>
</g>
<defs>
<clipPath id="clip0_477_346">
<rect width="32" height="32" fill="white"/>
</clipPath>
</defs>
</svg>
